<?xml version="1.0" encoding="utf-8"?>
<!-- Generator: Adobe Illustrator 16.0.0, SVG Export Plug-In . SVG Version: 6.00 Build 0)  -->
<!DOCTYPE svg PUBLIC "-//W3C//DTD SVG 1.1//EN" "http://www.w3.org/Graphics/SVG/1.1/DTD/svg11.dtd">
<svg version="1.1" id="Layer_1" xmlns="http://www.w3.org/2000/svg" xmlns:xlink="http://www.w3.org/1999/xlink" x="0px" y="0px"
	 width="70px" height="70px" viewBox="0 0 70 70" enable-background="new 0 0 70 70" xml:space="preserve">
<g>
	<line fill="none" stroke="#356E7B" stroke-width="1.5" stroke-miterlimit="10" x1="22.125" y1="10" x2="50.281" y2="10"/>
	<line fill="none" stroke="#356E7B" stroke-miterlimit="10" x1="30.252" y1="48.924" x2="60.779" y2="48.924"/>
	<line fill="none" stroke="#356E7B" stroke-miterlimit="10" x1="30.252" y1="43.783" x2="60.779" y2="43.783"/>
	<line fill="none" stroke="#356E7B" stroke-miterlimit="10" x1="30.252" y1="54.064" x2="60.779" y2="54.064"/>
	<line fill="none" stroke="#356E7B" stroke-miterlimit="10" x1="30.252" y1="59.203" x2="60.779" y2="59.203"/>
	<rect x="9.22" y="42.898" fill="#356E7B" width="17.103" height="17.102"/>
	<line fill="none" stroke="#356E7B" stroke-miterlimit="10" x1="30.252" y1="24.621" x2="60.779" y2="24.621"/>
	<line fill="none" stroke="#356E7B" stroke-miterlimit="10" x1="30.252" y1="19.481" x2="60.779" y2="19.481"/>
	<line fill="none" stroke="#356E7B" stroke-miterlimit="10" x1="30.252" y1="29.761" x2="60.779" y2="29.761"/>
	<line fill="none" stroke="#356E7B" stroke-miterlimit="10" x1="30.252" y1="34.9" x2="60.779" y2="34.9"/>
	<rect x="9.22" y="18.597" fill="#356E7B" width="17.103" height="17.104"/>
	<ellipse transform="matrix(1 0.0088 -0.0088 1 0.4538 -0.1545)" fill="#FFFFFF" cx="17.771" cy="51.45" rx="4.768" ry="4.55"/>
	<polygon fill="#356E7B" points="19.792,51.346 16.243,53.258 16.277,49.367 	"/>
</g>
</svg>
